<svg xmlns="http://www.w3.org/2000/svg" xmlns:xlink="http://www.w3.org/1999/xlink" width="224.636" height="31.324" viewBox="0 0 224.636 31.324">
  <defs>
    <clipPath id="clip-path">
      <rect id="Rectangle_1701" data-name="Rectangle 1701" width="224.636" height="31.324" fill="none"/>
    </clipPath>
  </defs>
  <g id="Group_353" data-name="Group 353" transform="translate(0 0)">
    <path id="Path_38098" data-name="Path 38098" d="M0,.218V31.193H11.976L7.721.218Z" transform="translate(0 -0.044)" fill="#fe3200"/>
    <rect id="Rectangle_1696" data-name="Rectangle 1696" width="2.763" height="30.975" transform="translate(17.128 0.174)" fill="orange"/>
    <rect id="Rectangle_1697" data-name="Rectangle 1697" width="5.432" height="30.975" transform="translate(27.74 0.174)" fill="#7f19a8"/>
    <rect id="Rectangle_1698" data-name="Rectangle 1698" width="11.979" height="30.975" transform="translate(39.218 0.174)" fill="#d40081"/>
    <path id="Path_38099" data-name="Path 38099" d="M70.785.218,74,31.193h3.98V.218Z" transform="translate(-14.122 -0.044)" fill="orange"/>
    <path id="Path_38100" data-name="Path 38100" d="M88.4.218l-2.32,30.975H94.3L101.827.218Z" transform="translate(-17.172 -0.044)" fill="#c00020"/>
    <rect id="Rectangle_1699" data-name="Rectangle 1699" width="2.993" height="30.975" transform="translate(90.164 0.174)" fill="#fe3200"/>
    <rect id="Rectangle_1700" data-name="Rectangle 1700" width="7.969" height="30.975" transform="translate(100.5 0.174)" fill="#74af0d"/>
    <path id="Path_38101" data-name="Path 38101" d="M153.62,26.173l-3.779,5.568-3.754-5.531-.026-.038h-.949v10.01h1.047V28.2l3.493,5.081.053.078h.243l3.546-5.159v7.987h1.075V26.173Z" transform="translate(-28.95 -5.222)" fill="#161615"/>
    <path id="Path_38102" data-name="Path 38102" d="M163.242,27.484l2.26,4.974H160.97Zm-.445-1.4-4.661,10.079h1.141l1.227-2.7h5.464l1.178,2.6.049.1h1.182l-4.613-9.976-.048-.1Z" transform="translate(-31.548 -5.204)" fill="#161615"/>
    <path id="Path_38103" data-name="Path 38103" d="M172.03,26.173v10.01h6.742v-1.02H173.1v-8.99Z" transform="translate(-34.32 -5.222)" fill="#161615"/>
    <path id="Path_38104" data-name="Path 38104" d="M181.67,26.173v10.01h6.743v-1.02h-5.667v-8.99Z" transform="translate(-36.243 -5.222)" fill="#161615"/>
    <g id="Group_352" data-name="Group 352" transform="translate(0 0)">
      <g id="Group_351" data-name="Group 351" clip-path="url(#clip-path)">
        <path id="Path_38105" data-name="Path 38105" d="M199.652,25.967a5.063,5.063,0,0,0-5.046,5.17v.028a4.97,4.97,0,0,0,5.018,5.142,5.068,5.068,0,0,0,5.046-5.142v-.084a4.973,4.973,0,0,0-5.019-5.114m0,9.335a4.015,4.015,0,0,1-3.943-4.164v-.028a3.942,3.942,0,0,1,3.916-4.136,4.015,4.015,0,0,1,3.943,4.164v.028a3.942,3.942,0,0,1-3.916,4.136" transform="translate(-38.824 -5.18)" fill="#161615"/>
        <path id="Path_38106" data-name="Path 38106" d="M209.149,36.183h1.075V31.813h5.461V30.792h-5.461v-3.6H216.3V26.173h-7.156Z" transform="translate(-41.725 -5.221)" fill="#161615"/>
        <path id="Path_38107" data-name="Path 38107" d="M232.727,31.165v-.084a4.974,4.974,0,0,0-5.019-5.115,5.063,5.063,0,0,0-5.046,5.17v.028a5.05,5.05,0,0,0,8.128,4.1l1.369,1.243.757-.82-1.383-1.163a5.29,5.29,0,0,0,1.194-3.357m-4.585,1.822,1.849,1.579a3.793,3.793,0,0,1-2.283.736,4.016,4.016,0,0,1-3.944-4.165v-.027a3.943,3.943,0,0,1,3.917-4.137,4.015,4.015,0,0,1,3.943,4.164v.028a4.339,4.339,0,0,1-.888,2.664l-1.841-1.676Z" transform="translate(-44.421 -5.18)" fill="#161615"/>
        <path id="Path_38108" data-name="Path 38108" d="M241.972,26.086h-.918l-4.661,10.08h1.14l1.227-2.7h5.464l1.179,2.6.049.1h1.18L242.02,26.19Zm1.787,6.371h-4.532l2.272-4.974Z" transform="translate(-47.16 -5.204)" fill="#161615"/>
        <path id="Path_38109" data-name="Path 38109" d="M255.463,26.173h-7.8v1.02h3.365v8.99H252.1v-8.99h3.365Z" transform="translate(-49.408 -5.221)" fill="#161615"/>
        <path id="Path_38110" data-name="Path 38110" d="M261.257,26.086h-.918l-4.661,10.08h1.14l1.227-2.7h5.464l1.178,2.6.049.1h1.181L261.3,26.19Zm1.786,6.371h-4.532l2.273-4.974Z" transform="translate(-51.007 -5.204)" fill="#161615"/>
        <path id="Path_38111" data-name="Path 38111" d="M275.3,32.009a2.928,2.928,0,0,0,2.682-2.885V29.1c0-1.747-1.458-2.923-3.627-2.923h-4.232v10.01H271.2v-4h2.891l3.076,4h1.362Zm1.606-2.885v.027c0,1.232-1.033,2.028-2.634,2.028H271.2V27.194h3.116c1.623,0,2.593.721,2.593,1.93" transform="translate(-53.889 -5.221)" fill="#161615"/>
        <path id="Path_38112" data-name="Path 38112" d="M151.1,8.743a3.879,3.879,0,0,1-.164,1.174,2.225,2.225,0,0,1-.475.845,2.018,2.018,0,0,1-.785.518,3.168,3.168,0,0,1-1.12.182,3.048,3.048,0,0,1-1-.151,1.973,1.973,0,0,1-.72-.421,1.791,1.791,0,0,1-.444-.663,2.434,2.434,0,0,1-.158-.9,3.394,3.394,0,0,1,.025-.405,3.914,3.914,0,0,1,.073-.422,4.014,4.014,0,0,1,.114-.4,3.177,3.177,0,0,1,.147-.359l.074-.145-.923-.492-.081.146a4.023,4.023,0,0,0-.221.495c-.066.177-.125.363-.178.553a5.131,5.131,0,0,0-.119.588,4.308,4.308,0,0,0-.042.59,3.332,3.332,0,0,0,.222,1.219,2.753,2.753,0,0,0,.653.987,3.052,3.052,0,0,0,1.059.653,4.067,4.067,0,0,0,1.43.235,4.249,4.249,0,0,0,1.618-.287,3.189,3.189,0,0,0,1.164-.8,3.371,3.371,0,0,0,.7-1.214,4.837,4.837,0,0,0,.23-1.519V0H151.1Z" transform="translate(-28.949 0)" fill="#161615"/>
        <path id="Path_38113" data-name="Path 38113" d="M194.724,7.866a2.982,2.982,0,0,0-.329-.552,2.366,2.366,0,0,0-.473-.469,2.281,2.281,0,0,0-.611-.325,2.193,2.193,0,0,0-.749-.125,2.327,2.327,0,0,0-.427.044,2,2,0,0,0-.493.171,2.576,2.576,0,0,0-.515.346,3.063,3.063,0,0,0-.509.572,5.229,5.229,0,0,0-.467.844,8.4,8.4,0,0,0-.405,1.162.951.951,0,0,1-.156.34.862.862,0,0,1-.235.215,1.021,1.021,0,0,1-.289.121,1.442,1.442,0,0,1-.322.038H161.473l0-1.119a4.523,4.523,0,0,0-.1-1,2.878,2.878,0,0,0-.279-.752,2.043,2.043,0,0,0-.423-.537,2.133,2.133,0,0,0-.51-.334,2.265,2.265,0,0,0-.553-.172,2.833,2.833,0,0,0-1.6.153,2.444,2.444,0,0,0-1.342,1.384,2.773,2.773,0,0,0-.187,1.018,2.826,2.826,0,0,0,.138.863,2.21,2.21,0,0,0,.456.8,2.377,2.377,0,0,0,.811.573,2.931,2.931,0,0,0,1.194.221c.089,0,.2-.006.319-.015s.255-.026.391-.049a4.3,4.3,0,0,0,.424-.09c.053-.014.1-.03.154-.046a1.256,1.256,0,0,1-.179.447,1.9,1.9,0,0,1-.6.566,3.71,3.71,0,0,1-.954.409,6.991,6.991,0,0,1-1.25.224l-.171.015.121,1.021.165-.018a8.885,8.885,0,0,0,1.591-.311,3.85,3.85,0,0,0,1.265-.637,2.791,2.791,0,0,0,.827-1.075,2.52,2.52,0,0,0,.147-.46h27.538l.034-.006a2.537,2.537,0,0,0,.372-.027,1.523,1.523,0,0,0,.417-.127,1.258,1.258,0,0,0,.363-.261,1.683,1.683,0,0,0,.191-.238,3.29,3.29,0,0,0,.339.214,3.718,3.718,0,0,0,.593.266,4.6,4.6,0,0,0,.667.178,3.921,3.921,0,0,0,.724.066,2.723,2.723,0,0,0,1.085-.2,2.112,2.112,0,0,0,1.193-1.3,2.731,2.731,0,0,0,.14-.865,2.646,2.646,0,0,0-.068-.57,3.031,3.031,0,0,0-.2-.588m-.693,1.3a1.12,1.12,0,0,1-.108.515.891.891,0,0,1-.3.344,1.54,1.54,0,0,1-.511.211,2.959,2.959,0,0,1-1.235.016,3.835,3.835,0,0,1-.541-.144,2.538,2.538,0,0,1-.442-.2,1.155,1.155,0,0,1-.193-.138,6.116,6.116,0,0,1,.286-.857,3.636,3.636,0,0,1,.427-.766,2.094,2.094,0,0,1,.527-.507,1.059,1.059,0,0,1,.591-.177,1.194,1.194,0,0,1,.634.168,1.632,1.632,0,0,1,.476.434,2.039,2.039,0,0,1,.294.564,1.764,1.764,0,0,1,.1.536M160.4,9.5v.575c-.039.015-.083.03-.133.045a2.461,2.461,0,0,1-.314.077c-.117.023-.235.042-.359.057a2.657,2.657,0,0,1-.331.022,2.353,2.353,0,0,1-.809-.123,1.511,1.511,0,0,1-.532-.321,1.214,1.214,0,0,1-.3-.455,1.641,1.641,0,0,1-.1-.563,1.681,1.681,0,0,1,.113-.627,1.517,1.517,0,0,1,.3-.484,1.315,1.315,0,0,1,.445-.307,1.447,1.447,0,0,1,.56-.11,1.713,1.713,0,0,1,.534.086.985.985,0,0,1,.443.307,1.8,1.8,0,0,1,.339.667A4.058,4.058,0,0,1,160.4,9.5" transform="translate(-31.218 -1.252)" fill="#161615"/>
        <path id="Path_38114" data-name="Path 38114" d="M267,6.468a2.2,2.2,0,0,0-.457-.8,1.962,1.962,0,0,0-.732-.505,2.539,2.539,0,0,0-.958-.173,2.628,2.628,0,0,0-1.02.2,2.464,2.464,0,0,0-1.346,1.358,2.611,2.611,0,0,0-.154,1.443,2.463,2.463,0,0,0,.135.47,2.15,2.15,0,0,0,.252.455c.02.027.042.054.063.081h-9.01V7.878a4.572,4.572,0,0,0-.152-1.2,2.8,2.8,0,0,0-.48-.991,2.281,2.281,0,0,0-.849-.672,2.87,2.87,0,0,0-1.222-.242,2.953,2.953,0,0,0-.894.135,3.554,3.554,0,0,0-.8.367,4.54,4.54,0,0,0-.7.543c-.106.1-.207.2-.3.3V0h-1.079V7.653a7.994,7.994,0,0,0-.365.754c-.088.208-.163.406-.223.588H216.518V5.236h-1.079V9.162a5.556,5.556,0,0,1-.081,1,1.783,1.783,0,0,1-.287.705,1.575,1.575,0,0,1-.575.484,3.516,3.516,0,0,1-1,.3l-.158.027.137,1.035.17-.029a5.643,5.643,0,0,0,1.17-.306,2.707,2.707,0,0,0,.869-.54,2.424,2.424,0,0,0,.56-.819,3.583,3.583,0,0,0,.238-.957h50.673V7.51A3.31,3.31,0,0,0,267,6.468m-.913,1.3V9h-1.09a2.195,2.195,0,0,1-.729-.115,1.584,1.584,0,0,1-.534-.312A1.369,1.369,0,0,1,263.4,8.1a1.452,1.452,0,0,1-.117-.583,1.629,1.629,0,0,1,.112-.608,1.438,1.438,0,0,1,.306-.47,1.369,1.369,0,0,1,.451-.3,1.463,1.463,0,0,1,.559-.109,1.636,1.636,0,0,1,.523.084,1.087,1.087,0,0,1,.43.271,1.366,1.366,0,0,1,.3.522,2.653,2.653,0,0,1,.118.858M252.692,8V9h-4.93c.057-.183.125-.368.2-.554a5.9,5.9,0,0,1,.4-.776,5.467,5.467,0,0,1,.514-.714,4.046,4.046,0,0,1,.609-.588,2.814,2.814,0,0,1,.689-.4,2.237,2.237,0,0,1,1.459-.037,1.3,1.3,0,0,1,.548.341,1.687,1.687,0,0,1,.371.656A3.53,3.53,0,0,1,252.692,8" transform="translate(-42.56 0)" fill="#161615"/>
        <path id="Path_38115" data-name="Path 38115" d="M278.549,4.263a.829.829,0,0,0,.615-.251.883.883,0,0,0,0-1.221.82.82,0,0,0-.616-.257.845.845,0,0,0-.609.253.823.823,0,0,0-.259.607.833.833,0,0,0,.262.623.857.857,0,0,0,.607.246" transform="translate(-55.397 -0.506)" fill="#161615"/>
        <path id="Path_38116" data-name="Path 38116" d="M275.911,4.263a.835.835,0,0,0,.609-.249.848.848,0,0,0,.251-.62.839.839,0,0,0-.249-.6.821.821,0,0,0-.612-.257.842.842,0,0,0-.609.253.856.856,0,0,0,0,1.23.853.853,0,0,0,.607.246" transform="translate(-54.87 -0.506)" fill="#161615"/>
      </g>
    </g>
  </g>
</svg>
